<svg xmlns="http://www.w3.org/2000/svg" viewBox="0 0 24 24"><path d="M20.8 12.75l-10-3.07a1 1 0 00-1 .26 1 1 0 00-.24 1l3.21 9.88a1 1 0 00.88.68h.08a1 1 0 00.89-.56l2.1-4.24L21 14.6a1 1 0 00-.16-1.85zM6.28 4.88A1 1 0 004.86 6.3l2.76 2.75a1 1 0 00.71.29A1 1 0 009 9.05a1 1 0 000-1.42zm.53 7.4a1 1 0 001-.84A1 1 0 007 10.29l-3.89-.61a1 1 0 00-1.11.84 1 1 0 00.83 1.14l3.85.61zm.05 1.38l-3.47 1.76a1 1 0 00.45 1.89.91.91 0 00.45-.11l3.48-1.76a1 1 0 10-.91-1.78zm7.25-5.39a1.07 1.07 0 00.46.11 1 1 0 00.89-.55l1.77-3.46A1 1 0 0016.79 3a1 1 0 00-1.34.43l-1.77 3.49a1 1 0 00.43 1.35zm-2.82-.42h.16a1 1 0 00.83-1.15l-.61-3.84a1 1 0 10-2 .32L10.3 7a1 1 0 00.99.85z"/></svg>