<svg xmlns="http://www.w3.org/2000/svg" viewBox="0 0 24 24"><path d="M20.8 12.75l-10-3.07a1 1 0 0 0-1 .26 1 1 0 0 0-.24 1l3.21 9.88a1 1 0 0 0 .88.68h.08a1 1 0 0 0 .89-.56l2.1-4.24L21 14.6a1 1 0 0 0-.16-1.85zM6.28 4.88A1 1 0 0 0 4.86 6.3L7.62 9.05a1 1 0 0 0 .71.29A1 1 0 0 0 9 9.05 1 1 0 0 0 9 7.63zM6.81 12.28a1 1 0 0 0 1-.84A1 1 0 0 0 7 10.29L3.11 9.68A1 1 0 0 0 2 10.52a1 1 0 0 0 .83 1.14l3.85.61zM6.86 13.66L3.39 15.42a1 1 0 0 0 .45 1.89.91.91 0 0 0 .45-.11l3.48-1.76a1 1 0 1 0-.91-1.78zM14.11 8.27a1.07 1.07 0 0 0 .46.11 1 1 0 0 0 .89-.55l1.77-3.46A1 1 0 0 0 16.79 3a1 1 0 0 0-1.34.43L13.68 6.92A1 1 0 0 0 14.11 8.27zM11.29 7.85h.16a1 1 0 0 0 .83-1.15l-.61-3.84a1 1 0 1 0-2 .32L10.3 7A1 1 0 0 0 11.29 7.85z"/></svg>