<svg width="13" height="14" viewBox="0 0 13 14" fill="none" xmlns="http://www.w3.org/2000/svg">
<path d="M12.222 5.687C12.4574 5.81641 12.6538 6.00667 12.7905 6.2379C12.9273 6.46914 12.9994 6.73285 12.9994 7.0015C12.9994 7.27015 12.9273 7.53387 12.7905 7.7651C12.6538 7.99633 12.4574 8.18659 12.222 8.316L2.222 13.815C1.99358 13.9404 1.73641 14.0042 1.47585 14C1.21529 13.9958 0.960312 13.9238 0.736045 13.7911C0.511778 13.6584 0.325958 13.4695 0.196892 13.2431C0.0678256 13.0167 -3.36145e-05 12.7606 1.24916e-08 12.5V1.502C4.46389e-05 1.24135 0.068011 0.9852 0.1972 0.758811C0.32639 0.532423 0.512342 0.343607 0.73673 0.210973C0.961117 0.0783387 1.21619 0.00646556 1.47682 0.00243747C1.73744 -0.00159063 1.99462 0.0623653 2.223 0.188002L12.222 5.687V5.687Z" fill="black"/>
</svg>
